<svg width="40" height="40" viewBox="0 0 40 40" fill="none" xmlns="http://www.w3.org/2000/svg">
<rect width="40" height="40" rx="20" transform="matrix(1 1.74845e-07 1.74846e-07 -1 0 40)" fill="#252C31"/>
<path fill-rule="evenodd" clip-rule="evenodd" d="M11.7072 18.6771C11.3078 18.7321 11 19.0795 11 19.4999C11 19.9585 11.3663 20.3302 11.8182 20.3302L26.1999 20.3302L21.0047 25.5813L20.9253 25.6743C20.687 25.9989 20.7124 26.4602 21.0023 26.7556C21.3212 27.0805 21.8392 27.0816 22.1594 26.758L28.7477 20.0995C28.787 20.0614 28.8224 20.0194 28.8536 19.974C29.0766 19.6498 29.0452 19.1999 28.7593 18.9111L22.1593 12.2419L22.0674 12.1617C21.7466 11.9213 21.2921 11.949 21.0023 12.2445C20.6834 12.5694 20.6845 13.0951 21.0047 13.4187L26.2012 18.6696L11.8182 18.6696L11.7072 18.6771Z" fill="#00FF86"/>
</svg>
